<svg xmlns="http://www.w3.org/2000/svg" version="1.1" xmlns:xlink="http://www.w3.org/1999/xlink" xmlns:svgjs="http://svgjs.dev/svgjs" width="1440" height="560" preserveAspectRatio="none" viewBox="0 0 1440 560"><g mask="url(&quot;#SvgjsMask1004&quot;)" fill="none"><rect width="1440" height="560" x="0" y="0" fill="rgba(13, 69, 127, 1)"></rect><path d="M-101.91 340.44L-101.91 340.44" stroke="#132e65" stroke-width="1.5"></path><path d="M-101.91 340.44L-70.91 555.12" stroke="#132e65" stroke-width="1.5"></path><path d="M-101.91 340.44L80.51 557.71" stroke="#132e65" stroke-width="1.5"></path><path d="M-101.91 340.44L240.64 364.35" stroke="#132e65" stroke-width="1.5"></path><path d="M-101.91 340.44L-40.11 684.17" stroke="#132e65" stroke-width="1.5"></path><path d="M-70.91 555.12L-70.91 555.12" stroke="#132e65" stroke-width="1.5"></path><path d="M-70.91 555.12L-40.11 684.17" stroke="#132e65" stroke-width="1.5"></path><path d="M-40.11 684.17L-40.11 684.17" stroke="#132e65" stroke-width="1.5"></path><path d="M-40.11 684.17L70.98 661.53" stroke="#132e65" stroke-width="1.5"></path><path d="M80.51 557.71L80.51 557.71" stroke="#132e65" stroke-width="1.5"></path><path d="M80.51 557.71L70.98 661.53" stroke="#132e65" stroke-width="1.5"></path><path d="M80.51 557.71L207.52 534.08" stroke="#132e65" stroke-width="1.5"></path><path d="M80.51 557.71L-70.91 555.12" stroke="#132e65" stroke-width="1.5"></path><path d="M80.51 557.71L-40.11 684.17" stroke="#132e65" stroke-width="1.5"></path><path d="M80.51 557.71L245.28 659.92" stroke="#132e65" stroke-width="1.5"></path><path d="M80.51 557.71L240.64 364.35" stroke="#132e65" stroke-width="1.5"></path><path d="M70.98 661.53L70.98 661.53" stroke="#132e65" stroke-width="1.5"></path><path d="M240.64 364.35L240.64 364.35" stroke="#132e65" stroke-width="1.5"></path><path d="M240.64 364.35L405.17 395.93" stroke="#132e65" stroke-width="1.5"></path><path d="M240.64 364.35L207.52 534.08" stroke="#132e65" stroke-width="1.5"></path><path d="M240.64 364.35L521.28 348.46" stroke="#132e65" stroke-width="1.5"></path><path d="M240.64 364.35L245.28 659.92" stroke="#132e65" stroke-width="1.5"></path><path d="M207.52 534.08L207.52 534.08" stroke="#132e65" stroke-width="1.5"></path><path d="M207.52 534.08L245.28 659.92" stroke="#132e65" stroke-width="1.5"></path><path d="M207.52 534.08L70.98 661.53" stroke="#132e65" stroke-width="1.5"></path><path d="M207.52 534.08L405.17 395.93" stroke="#132e65" stroke-width="1.5"></path><path d="M245.28 659.92L245.28 659.92" stroke="#132e65" stroke-width="1.5"></path><path d="M245.28 659.92L70.98 661.53" stroke="#132e65" stroke-width="1.5"></path><path d="M245.28 659.92L-40.11 684.17" stroke="#132e65" stroke-width="1.5"></path><path d="M405.17 395.93L405.17 395.93" stroke="#132e65" stroke-width="1.5"></path><path d="M405.17 395.93L521.28 348.46" stroke="#132e65" stroke-width="1.5"></path><path d="M405.17 395.93L515.62 549.5" stroke="#132e65" stroke-width="1.5"></path><path d="M521.28 348.46L521.28 348.46" stroke="#132e65" stroke-width="1.5"></path><path d="M521.28 348.46L651.79 376.26" stroke="#132e65" stroke-width="1.5"></path><path d="M521.28 348.46L515.62 549.5" stroke="#132e65" stroke-width="1.5"></path><path d="M521.28 348.46L663.97 517.51" stroke="#132e65" stroke-width="1.5"></path><path d="M515.62 549.5L515.62 549.5" stroke="#132e65" stroke-width="1.5"></path><path d="M515.62 549.5L551.97 645.69" stroke="#132e65" stroke-width="1.5"></path><path d="M515.62 549.5L663.97 517.51" stroke="#132e65" stroke-width="1.5"></path><path d="M551.97 645.69L551.97 645.69" stroke="#132e65" stroke-width="1.5"></path><path d="M551.97 645.69L711.52 644.82" stroke="#132e65" stroke-width="1.5"></path><path d="M651.79 376.26L651.79 376.26" stroke="#132e65" stroke-width="1.5"></path><path d="M651.79 376.26L663.97 517.51" stroke="#132e65" stroke-width="1.5"></path><path d="M651.79 376.26L799.35 400.22" stroke="#132e65" stroke-width="1.5"></path><path d="M651.79 376.26L823.61 490.57" stroke="#132e65" stroke-width="1.5"></path><path d="M651.79 376.26L515.62 549.5" stroke="#132e65" stroke-width="1.5"></path><path d="M651.79 376.26L860.88 252.85" stroke="#132e65" stroke-width="1.5"></path><path d="M663.97 517.51L663.97 517.51" stroke="#132e65" stroke-width="1.5"></path><path d="M663.97 517.51L711.52 644.82" stroke="#132e65" stroke-width="1.5"></path><path d="M663.97 517.51L823.61 490.57" stroke="#132e65" stroke-width="1.5"></path><path d="M663.97 517.51L551.97 645.69" stroke="#132e65" stroke-width="1.5"></path><path d="M711.52 644.82L711.52 644.82" stroke="#132e65" stroke-width="1.5"></path><path d="M711.52 644.82L802.86 674.71" stroke="#132e65" stroke-width="1.5"></path><path d="M860.88 252.85L860.88 252.85" stroke="#132e65" stroke-width="1.5"></path><path d="M860.88 252.85L1004.33 228.77" stroke="#132e65" stroke-width="1.5"></path><path d="M860.88 252.85L986.08 341.92" stroke="#132e65" stroke-width="1.5"></path><path d="M860.88 252.85L799.35 400.22" stroke="#132e65" stroke-width="1.5"></path><path d="M799.35 400.22L799.35 400.22" stroke="#132e65" stroke-width="1.5"></path><path d="M799.35 400.22L823.61 490.57" stroke="#132e65" stroke-width="1.5"></path><path d="M823.61 490.57L823.61 490.57" stroke="#132e65" stroke-width="1.5"></path><path d="M802.86 674.71L802.86 674.71" stroke="#132e65" stroke-width="1.5"></path><path d="M802.86 674.71L969.81 696.11" stroke="#132e65" stroke-width="1.5"></path><path d="M802.86 674.71L823.61 490.57" stroke="#132e65" stroke-width="1.5"></path><path d="M802.86 674.71L663.97 517.51" stroke="#132e65" stroke-width="1.5"></path><path d="M802.86 674.71L551.97 645.69" stroke="#132e65" stroke-width="1.5"></path><path d="M802.86 674.71L1003.63 509.86" stroke="#132e65" stroke-width="1.5"></path><path d="M1009.53 -60.16L1009.53 -60.16" stroke="#132e65" stroke-width="1.5"></path><path d="M1009.53 -60.16L1142.43 -73.95" stroke="#132e65" stroke-width="1.5"></path><path d="M961.95 82.07L961.95 82.07" stroke="#132e65" stroke-width="1.5"></path><path d="M961.95 82.07L1009.53 -60.16" stroke="#132e65" stroke-width="1.5"></path><path d="M961.95 82.07L1004.33 228.77" stroke="#132e65" stroke-width="1.5"></path><path d="M961.95 82.07L1134.64 105.58" stroke="#132e65" stroke-width="1.5"></path><path d="M961.95 82.07L860.88 252.85" stroke="#132e65" stroke-width="1.5"></path><path d="M1004.33 228.77L1004.33 228.77" stroke="#132e65" stroke-width="1.5"></path><path d="M1004.33 228.77L986.08 341.92" stroke="#132e65" stroke-width="1.5"></path><path d="M1004.33 228.77L1110.34 338.84" stroke="#132e65" stroke-width="1.5"></path><path d="M1004.33 228.77L1134.64 105.58" stroke="#132e65" stroke-width="1.5"></path><path d="M1004.33 228.77L799.35 400.22" stroke="#132e65" stroke-width="1.5"></path><path d="M986.08 341.92L986.08 341.92" stroke="#132e65" stroke-width="1.5"></path><path d="M986.08 341.92L1110.34 338.84" stroke="#132e65" stroke-width="1.5"></path><path d="M986.08 341.92L1003.63 509.86" stroke="#132e65" stroke-width="1.5"></path><path d="M986.08 341.92L799.35 400.22" stroke="#132e65" stroke-width="1.5"></path><path d="M986.08 341.92L1108.55 501.95" stroke="#132e65" stroke-width="1.5"></path><path d="M1003.63 509.86L1003.63 509.86" stroke="#132e65" stroke-width="1.5"></path><path d="M1003.63 509.86L1108.55 501.95" stroke="#132e65" stroke-width="1.5"></path><path d="M1003.63 509.86L823.61 490.57" stroke="#132e65" stroke-width="1.5"></path><path d="M1003.63 509.86L969.81 696.11" stroke="#132e65" stroke-width="1.5"></path><path d="M1003.63 509.86L1110.34 338.84" stroke="#132e65" stroke-width="1.5"></path><path d="M969.81 696.11L969.81 696.11" stroke="#132e65" stroke-width="1.5"></path><path d="M969.81 696.11L1108.55 501.95" stroke="#132e65" stroke-width="1.5"></path><path d="M969.81 696.11L823.61 490.57" stroke="#132e65" stroke-width="1.5"></path><path d="M969.81 696.11L711.52 644.82" stroke="#132e65" stroke-width="1.5"></path><path d="M1142.43 -73.95L1142.43 -73.95" stroke="#132e65" stroke-width="1.5"></path><path d="M1142.43 -73.95L1243.63 -58.18" stroke="#132e65" stroke-width="1.5"></path><path d="M1134.64 105.58L1134.64 105.58" stroke="#132e65" stroke-width="1.5"></path><path d="M1134.64 105.58L1246.87 46.49" stroke="#132e65" stroke-width="1.5"></path><path d="M1134.64 105.58L1142.43 -73.95" stroke="#132e65" stroke-width="1.5"></path><path d="M1134.64 105.58L1309.34 188.13" stroke="#132e65" stroke-width="1.5"></path><path d="M1110.34 338.84L1110.34 338.84" stroke="#132e65" stroke-width="1.5"></path><path d="M1110.34 338.84L1256.5 346.19" stroke="#132e65" stroke-width="1.5"></path><path d="M1108.55 501.95L1108.55 501.95" stroke="#132e65" stroke-width="1.5"></path><path d="M1108.55 501.95L1110.34 338.84" stroke="#132e65" stroke-width="1.5"></path><path d="M1108.55 501.95L1272.63 511.56" stroke="#132e65" stroke-width="1.5"></path><path d="M1243.63 -58.18L1243.63 -58.18" stroke="#132e65" stroke-width="1.5"></path><path d="M1243.63 -58.18L1246.87 46.49" stroke="#132e65" stroke-width="1.5"></path><path d="M1243.63 -58.18L1399.07 -58.86" stroke="#132e65" stroke-width="1.5"></path><path d="M1246.87 46.49L1246.87 46.49" stroke="#132e65" stroke-width="1.5"></path><path d="M1246.87 46.49L1309.34 188.13" stroke="#132e65" stroke-width="1.5"></path><path d="M1309.34 188.13L1309.34 188.13" stroke="#132e65" stroke-width="1.5"></path><path d="M1309.34 188.13L1399.25 211.82" stroke="#132e65" stroke-width="1.5"></path><path d="M1309.34 188.13L1439.42 94.1" stroke="#132e65" stroke-width="1.5"></path><path d="M1309.34 188.13L1256.5 346.19" stroke="#132e65" stroke-width="1.5"></path><path d="M1256.5 346.19L1256.5 346.19" stroke="#132e65" stroke-width="1.5"></path><path d="M1256.5 346.19L1272.63 511.56" stroke="#132e65" stroke-width="1.5"></path><path d="M1256.5 346.19L1437.94 408.16" stroke="#132e65" stroke-width="1.5"></path><path d="M1256.5 346.19L1399.25 211.82" stroke="#132e65" stroke-width="1.5"></path><path d="M1256.5 346.19L1108.55 501.95" stroke="#132e65" stroke-width="1.5"></path><path d="M1272.63 511.56L1272.63 511.56" stroke="#132e65" stroke-width="1.5"></path><path d="M1272.63 511.56L1303.5 687.3" stroke="#132e65" stroke-width="1.5"></path><path d="M1272.63 511.56L1455.8 536.9" stroke="#132e65" stroke-width="1.5"></path><path d="M1272.63 511.56L1405.69 642.85" stroke="#132e65" stroke-width="1.5"></path><path d="M1303.5 687.3L1303.5 687.3" stroke="#132e65" stroke-width="1.5"></path><path d="M1303.5 687.3L1405.69 642.85" stroke="#132e65" stroke-width="1.5"></path><path d="M1399.07 -58.86L1399.07 -58.86" stroke="#132e65" stroke-width="1.5"></path><path d="M1399.07 -58.86L1439.42 94.1" stroke="#132e65" stroke-width="1.5"></path><path d="M1439.42 94.1L1439.42 94.1" stroke="#132e65" stroke-width="1.5"></path><path d="M1439.42 94.1L1538.51 53.64" stroke="#132e65" stroke-width="1.5"></path><path d="M1439.42 94.1L1399.25 211.82" stroke="#132e65" stroke-width="1.5"></path><path d="M1439.42 94.1L1568.49 238.63" stroke="#132e65" stroke-width="1.5"></path><path d="M1399.25 211.82L1399.25 211.82" stroke="#132e65" stroke-width="1.5"></path><path d="M1399.25 211.82L1568.49 238.63" stroke="#132e65" stroke-width="1.5"></path><path d="M1437.94 408.16L1437.94 408.16" stroke="#132e65" stroke-width="1.5"></path><path d="M1437.94 408.16L1561.36 382.45" stroke="#132e65" stroke-width="1.5"></path><path d="M1437.94 408.16L1455.8 536.9" stroke="#132e65" stroke-width="1.5"></path><path d="M1437.94 408.16L1272.63 511.56" stroke="#132e65" stroke-width="1.5"></path><path d="M1437.94 408.16L1399.25 211.82" stroke="#132e65" stroke-width="1.5"></path><path d="M1455.8 536.9L1455.8 536.9" stroke="#132e65" stroke-width="1.5"></path><path d="M1455.8 536.9L1405.69 642.85" stroke="#132e65" stroke-width="1.5"></path><path d="M1455.8 536.9L1603.91 519.98" stroke="#132e65" stroke-width="1.5"></path><path d="M1455.8 536.9L1561.36 382.45" stroke="#132e65" stroke-width="1.5"></path><path d="M1405.69 642.85L1405.69 642.85" stroke="#132e65" stroke-width="1.5"></path><path d="M1405.69 642.85L1584.47 687.02" stroke="#132e65" stroke-width="1.5"></path><path d="M1565.23 -66.3L1565.23 -66.3" stroke="#132e65" stroke-width="1.5"></path><path d="M1565.23 -66.3L1538.51 53.64" stroke="#132e65" stroke-width="1.5"></path><path d="M1565.23 -66.3L1399.07 -58.86" stroke="#132e65" stroke-width="1.5"></path><path d="M1565.23 -66.3L1439.42 94.1" stroke="#132e65" stroke-width="1.5"></path><path d="M1565.23 -66.3L1568.49 238.63" stroke="#132e65" stroke-width="1.5"></path><path d="M1565.23 -66.3L1243.63 -58.18" stroke="#132e65" stroke-width="1.5"></path><path d="M1565.23 -66.3L1399.25 211.82" stroke="#132e65" stroke-width="1.5"></path><path d="M1538.51 53.64L1538.51 53.64" stroke="#132e65" stroke-width="1.5"></path><path d="M1568.49 238.63L1568.49 238.63" stroke="#132e65" stroke-width="1.5"></path><path d="M1568.49 238.63L1561.36 382.45" stroke="#132e65" stroke-width="1.5"></path><path d="M1561.36 382.45L1561.36 382.45" stroke="#132e65" stroke-width="1.5"></path><path d="M1561.36 382.45L1603.91 519.98" stroke="#132e65" stroke-width="1.5"></path><path d="M1603.91 519.98L1603.91 519.98" stroke="#132e65" stroke-width="1.5"></path><path d="M1584.47 687.02L1584.47 687.02" stroke="#132e65" stroke-width="1.5"></path><path d="M1584.47 687.02L1603.91 519.98" stroke="#132e65" stroke-width="1.5"></path><path d="M1584.47 687.02L1455.8 536.9" stroke="#132e65" stroke-width="1.5"></path><circle r="5" cx="-101.91" cy="340.44" fill="#132e65"></circle><circle r="5" cx="-70.91" cy="555.12" fill="#132e65"></circle><circle r="5" cx="-40.11" cy="684.17" fill="#132e65"></circle><circle r="5" cx="80.51" cy="557.71" fill="#132e65"></circle><circle r="5" cx="70.98" cy="661.53" fill="#132e65"></circle><circle r="5" cx="240.64" cy="364.35" fill="#132e65"></circle><circle r="5" cx="207.52" cy="534.08" fill="#132e65"></circle><circle r="5" cx="245.28" cy="659.92" fill="#132e65"></circle><circle r="5" cx="405.17" cy="395.93" fill="#132e65"></circle><circle r="5" cx="521.28" cy="348.46" fill="#132e65"></circle><circle r="5" cx="515.62" cy="549.5" fill="#132e65"></circle><circle r="5" cx="551.97" cy="645.69" fill="#132e65"></circle><circle r="5" cx="651.79" cy="376.26" fill="#132e65"></circle><circle r="5" cx="663.97" cy="517.51" fill="#132e65"></circle><circle r="5" cx="711.52" cy="644.82" fill="#132e65"></circle><circle r="5" cx="860.88" cy="252.85" fill="#132e65"></circle><circle r="5" cx="799.35" cy="400.22" fill="#132e65"></circle><circle r="5" cx="823.61" cy="490.57" fill="#132e65"></circle><circle r="5" cx="802.86" cy="674.71" fill="#132e65"></circle><circle r="5" cx="1009.53" cy="-60.16" fill="#132e65"></circle><circle r="5" cx="961.95" cy="82.07" fill="#132e65"></circle><circle r="5" cx="1004.33" cy="228.77" fill="#132e65"></circle><circle r="5" cx="986.08" cy="341.92" fill="#132e65"></circle><circle r="5" cx="1003.63" cy="509.86" fill="#132e65"></circle><circle r="5" cx="969.81" cy="696.11" fill="#132e65"></circle><circle r="5" cx="1142.43" cy="-73.95" fill="#132e65"></circle><circle r="5" cx="1134.64" cy="105.58" fill="#132e65"></circle><circle r="5" cx="1110.34" cy="338.84" fill="#132e65"></circle><circle r="5" cx="1108.55" cy="501.95" fill="#132e65"></circle><circle r="5" cx="1243.63" cy="-58.18" fill="#132e65"></circle><circle r="5" cx="1246.87" cy="46.49" fill="#132e65"></circle><circle r="5" cx="1309.34" cy="188.13" fill="#132e65"></circle><circle r="5" cx="1256.5" cy="346.19" fill="#132e65"></circle><circle r="5" cx="1272.63" cy="511.56" fill="#132e65"></circle><circle r="5" cx="1303.5" cy="687.3" fill="#132e65"></circle><circle r="5" cx="1399.07" cy="-58.86" fill="#132e65"></circle><circle r="5" cx="1439.42" cy="94.1" fill="#132e65"></circle><circle r="5" cx="1399.25" cy="211.82" fill="#132e65"></circle><circle r="5" cx="1437.94" cy="408.16" fill="#132e65"></circle><circle r="5" cx="1455.8" cy="536.9" fill="#132e65"></circle><circle r="5" cx="1405.69" cy="642.85" fill="#132e65"></circle><circle r="5" cx="1565.23" cy="-66.3" fill="#132e65"></circle><circle r="5" cx="1538.51" cy="53.64" fill="#132e65"></circle><circle r="5" cx="1568.49" cy="238.63" fill="#132e65"></circle><circle r="5" cx="1561.36" cy="382.45" fill="#132e65"></circle><circle r="5" cx="1603.91" cy="519.98" fill="#132e65"></circle><circle r="5" cx="1584.47" cy="687.02" fill="#132e65"></circle><path d="M659.01 698.84L659.01 698.84" stroke="hsl(228.5, 77.2%, 51.5%)" stroke-width="1.5"></path><path d="M659.01 698.84L535.22 660.62" stroke="hsl(228.5, 77.2%, 51.5%)" stroke-width="1.5"></path><path d="M659.01 698.84L835.2 711.7" stroke="hsl(228.5, 77.2%, 51.5%)" stroke-width="1.5"></path><path d="M659.01 698.84L672.59 510.45" stroke="hsl(228.5, 77.2%, 51.5%)" stroke-width="1.5"></path><path d="M659.01 698.84L815.99 518.73" stroke="hsl(228.5, 77.2%, 51.5%)" stroke-width="1.5"></path><path d="M659.01 698.84L501.98 506.6" stroke="hsl(228.5, 77.2%, 51.5%)" stroke-width="1.5"></path><path d="M1095.41 389.53L1095.41 389.53" stroke="hsl(228.5, 77.2%, 51.5%)" stroke-width="1.5"></path><path d="M1095.41 389.53L1152.6 500.41" stroke="hsl(228.5, 77.2%, 51.5%)" stroke-width="1.5"></path><path d="M1095.41 389.53L971.81 408.01" stroke="hsl(228.5, 77.2%, 51.5%)" stroke-width="1.5"></path><path d="M1095.41 389.53L1011.03 502.71" stroke="hsl(228.5, 77.2%, 51.5%)" stroke-width="1.5"></path><path d="M1095.41 389.53L1264.6 370.26" stroke="hsl(228.5, 77.2%, 51.5%)" stroke-width="1.5"></path><path d="M1095.41 389.53L1152.63 202.3" stroke="hsl(228.5, 77.2%, 51.5%)" stroke-width="1.5"></path><path d="M1550.45 -86.09L1550.45 -86.09" stroke="hsl(228.5, 77.2%, 51.5%)" stroke-width="1.5"></path><path d="M1550.45 -86.09L1410.73 -102.09" stroke="hsl(228.5, 77.2%, 51.5%)" stroke-width="1.5"></path><path d="M1550.45 -86.09L1583.81 53.82" stroke="hsl(228.5, 77.2%, 51.5%)" stroke-width="1.5"></path><path d="M1550.45 -86.09L1415.48 47.65" stroke="hsl(228.5, 77.2%, 51.5%)" stroke-width="1.5"></path><path d="M1550.45 -86.09L1238.34 -83.1" stroke="hsl(228.5, 77.2%, 51.5%)" stroke-width="1.5"></path><path d="M1550.45 -86.09L1553.23 241.01" stroke="hsl(228.5, 77.2%, 51.5%)" stroke-width="1.5"></path><path d="M1550.45 -86.09L1253.65 69.3" stroke="hsl(228.5, 77.2%, 51.5%)" stroke-width="1.5"></path><path d="M1583.81 53.82L1583.81 53.82" stroke="hsl(228.5, 77.2%, 51.5%)" stroke-width="1.5"></path><path d="M1583.81 53.82L1415.48 47.65" stroke="hsl(228.5, 77.2%, 51.5%)" stroke-width="1.5"></path><path d="M-52.31 554.55L-52.31 554.55" stroke="hsl(228.5, 77.2%, 51.5%)" stroke-width="1.5"></path><path d="M-52.31 554.55L-105.7 673.51" stroke="hsl(228.5, 77.2%, 51.5%)" stroke-width="1.5"></path><path d="M-52.31 554.55L99.64 642.49" stroke="hsl(228.5, 77.2%, 51.5%)" stroke-width="1.5"></path><path d="M-52.31 554.55L245.31 524.63" stroke="hsl(228.5, 77.2%, 51.5%)" stroke-width="1.5"></path><path d="M-105.7 673.51L-105.7 673.51" stroke="hsl(228.5, 77.2%, 51.5%)" stroke-width="1.5"></path><path d="M-105.7 673.51L99.64 642.49" stroke="hsl(228.5, 77.2%, 51.5%)" stroke-width="1.5"></path><path d="M-105.7 673.51L245.31 524.63" stroke="hsl(228.5, 77.2%, 51.5%)" stroke-width="1.5"></path><path d="M-105.7 673.51L368.21 531.55" stroke="hsl(228.5, 77.2%, 51.5%)" stroke-width="1.5"></path><path d="M99.64 642.49L99.64 642.49" stroke="hsl(228.5, 77.2%, 51.5%)" stroke-width="1.5"></path><path d="M99.64 642.49L245.31 524.63" stroke="hsl(228.5, 77.2%, 51.5%)" stroke-width="1.5"></path><path d="M99.64 642.49L368.21 531.55" stroke="hsl(228.5, 77.2%, 51.5%)" stroke-width="1.5"></path><path d="M245.31 524.63L245.31 524.63" stroke="hsl(228.5, 77.2%, 51.5%)" stroke-width="1.5"></path><path d="M245.31 524.63L368.21 531.55" stroke="hsl(228.5, 77.2%, 51.5%)" stroke-width="1.5"></path><path d="M245.31 524.63L501.98 506.6" stroke="hsl(228.5, 77.2%, 51.5%)" stroke-width="1.5"></path><path d="M245.31 524.63L535.22 660.62" stroke="hsl(228.5, 77.2%, 51.5%)" stroke-width="1.5"></path><path d="M368.21 531.55L368.21 531.55" stroke="hsl(228.5, 77.2%, 51.5%)" stroke-width="1.5"></path><path d="M368.21 531.55L501.98 506.6" stroke="hsl(228.5, 77.2%, 51.5%)" stroke-width="1.5"></path><path d="M368.21 531.55L535.22 660.62" stroke="hsl(228.5, 77.2%, 51.5%)" stroke-width="1.5"></path><path d="M501.98 506.6L501.98 506.6" stroke="hsl(228.5, 77.2%, 51.5%)" stroke-width="1.5"></path><path d="M535.22 660.62L535.22 660.62" stroke="hsl(228.5, 77.2%, 51.5%)" stroke-width="1.5"></path><path d="M535.22 660.62L501.98 506.6" stroke="hsl(228.5, 77.2%, 51.5%)" stroke-width="1.5"></path><path d="M535.22 660.62L672.59 510.45" stroke="hsl(228.5, 77.2%, 51.5%)" stroke-width="1.5"></path><path d="M672.59 510.45L672.59 510.45" stroke="hsl(228.5, 77.2%, 51.5%)" stroke-width="1.5"></path><path d="M672.59 510.45L815.99 518.73" stroke="hsl(228.5, 77.2%, 51.5%)" stroke-width="1.5"></path><path d="M672.59 510.45L501.98 506.6" stroke="hsl(228.5, 77.2%, 51.5%)" stroke-width="1.5"></path><path d="M856.42 372.42L856.42 372.42" stroke="hsl(228.5, 77.2%, 51.5%)" stroke-width="1.5"></path><path d="M856.42 372.42L971.81 408.01" stroke="hsl(228.5, 77.2%, 51.5%)" stroke-width="1.5"></path><path d="M856.42 372.42L815.99 518.73" stroke="hsl(228.5, 77.2%, 51.5%)" stroke-width="1.5"></path><path d="M815.99 518.73L815.99 518.73" stroke="hsl(228.5, 77.2%, 51.5%)" stroke-width="1.5"></path><path d="M835.2 711.7L835.2 711.7" stroke="hsl(228.5, 77.2%, 51.5%)" stroke-width="1.5"></path><path d="M835.2 711.7L972.49 657.67" stroke="hsl(228.5, 77.2%, 51.5%)" stroke-width="1.5"></path><path d="M835.2 711.7L815.99 518.73" stroke="hsl(228.5, 77.2%, 51.5%)" stroke-width="1.5"></path><path d="M835.2 711.7L672.59 510.45" stroke="hsl(228.5, 77.2%, 51.5%)" stroke-width="1.5"></path><path d="M835.2 711.7L1011.03 502.71" stroke="hsl(228.5, 77.2%, 51.5%)" stroke-width="1.5"></path><path d="M835.2 711.7L1123.64 683.24" stroke="hsl(228.5, 77.2%, 51.5%)" stroke-width="1.5"></path><path d="M971.81 408.01L971.81 408.01" stroke="hsl(228.5, 77.2%, 51.5%)" stroke-width="1.5"></path><path d="M971.81 408.01L1011.03 502.71" stroke="hsl(228.5, 77.2%, 51.5%)" stroke-width="1.5"></path><path d="M971.81 408.01L815.99 518.73" stroke="hsl(228.5, 77.2%, 51.5%)" stroke-width="1.5"></path><path d="M971.81 408.01L1152.6 500.41" stroke="hsl(228.5, 77.2%, 51.5%)" stroke-width="1.5"></path><path d="M1011.03 502.71L1011.03 502.71" stroke="hsl(228.5, 77.2%, 51.5%)" stroke-width="1.5"></path><path d="M1011.03 502.71L1152.6 500.41" stroke="hsl(228.5, 77.2%, 51.5%)" stroke-width="1.5"></path><path d="M1011.03 502.71L972.49 657.67" stroke="hsl(228.5, 77.2%, 51.5%)" stroke-width="1.5"></path><path d="M1011.03 502.71L815.99 518.73" stroke="hsl(228.5, 77.2%, 51.5%)" stroke-width="1.5"></path><path d="M1011.03 502.71L856.42 372.42" stroke="hsl(228.5, 77.2%, 51.5%)" stroke-width="1.5"></path><path d="M972.49 657.67L972.49 657.67" stroke="hsl(228.5, 77.2%, 51.5%)" stroke-width="1.5"></path><path d="M972.49 657.67L1123.64 683.24" stroke="hsl(228.5, 77.2%, 51.5%)" stroke-width="1.5"></path><path d="M1156.88 46.02L1156.88 46.02" stroke="hsl(228.5, 77.2%, 51.5%)" stroke-width="1.5"></path><path d="M1156.88 46.02L1253.65 69.3" stroke="hsl(228.5, 77.2%, 51.5%)" stroke-width="1.5"></path><path d="M1156.88 46.02L1238.34 -83.1" stroke="hsl(228.5, 77.2%, 51.5%)" stroke-width="1.5"></path><path d="M1156.88 46.02L1152.63 202.3" stroke="hsl(228.5, 77.2%, 51.5%)" stroke-width="1.5"></path><path d="M1156.88 46.02L1240.22 210.66" stroke="hsl(228.5, 77.2%, 51.5%)" stroke-width="1.5"></path><path d="M1156.88 46.02L1415.48 47.65" stroke="hsl(228.5, 77.2%, 51.5%)" stroke-width="1.5"></path><path d="M1152.63 202.3L1152.63 202.3" stroke="hsl(228.5, 77.2%, 51.5%)" stroke-width="1.5"></path><path d="M1152.63 202.3L1240.22 210.66" stroke="hsl(228.5, 77.2%, 51.5%)" stroke-width="1.5"></path><path d="M1152.63 202.3L1253.65 69.3" stroke="hsl(228.5, 77.2%, 51.5%)" stroke-width="1.5"></path><path d="M1152.63 202.3L1264.6 370.26" stroke="hsl(228.5, 77.2%, 51.5%)" stroke-width="1.5"></path><path d="M1152.6 500.41L1152.6 500.41" stroke="hsl(228.5, 77.2%, 51.5%)" stroke-width="1.5"></path><path d="M1152.6 500.41L1282.72 543.56" stroke="hsl(228.5, 77.2%, 51.5%)" stroke-width="1.5"></path><path d="M1123.64 683.24L1123.64 683.24" stroke="hsl(228.5, 77.2%, 51.5%)" stroke-width="1.5"></path><path d="M1123.64 683.24L1280.31 695.81" stroke="hsl(228.5, 77.2%, 51.5%)" stroke-width="1.5"></path><path d="M1123.64 683.24L1152.6 500.41" stroke="hsl(228.5, 77.2%, 51.5%)" stroke-width="1.5"></path><path d="M1123.64 683.24L1282.72 543.56" stroke="hsl(228.5, 77.2%, 51.5%)" stroke-width="1.5"></path><path d="M1238.34 -83.1L1238.34 -83.1" stroke="hsl(228.5, 77.2%, 51.5%)" stroke-width="1.5"></path><path d="M1238.34 -83.1L1253.65 69.3" stroke="hsl(228.5, 77.2%, 51.5%)" stroke-width="1.5"></path><path d="M1238.34 -83.1L1410.73 -102.09" stroke="hsl(228.5, 77.2%, 51.5%)" stroke-width="1.5"></path><path d="M1238.34 -83.1L1415.48 47.65" stroke="hsl(228.5, 77.2%, 51.5%)" stroke-width="1.5"></path><path d="M1253.65 69.3L1253.65 69.3" stroke="hsl(228.5, 77.2%, 51.5%)" stroke-width="1.5"></path><path d="M1253.65 69.3L1240.22 210.66" stroke="hsl(228.5, 77.2%, 51.5%)" stroke-width="1.5"></path><path d="M1253.65 69.3L1415.48 47.65" stroke="hsl(228.5, 77.2%, 51.5%)" stroke-width="1.5"></path><path d="M1240.22 210.66L1240.22 210.66" stroke="hsl(228.5, 77.2%, 51.5%)" stroke-width="1.5"></path><path d="M1240.22 210.66L1264.6 370.26" stroke="hsl(228.5, 77.2%, 51.5%)" stroke-width="1.5"></path><path d="M1240.22 210.66L1401.74 255.43" stroke="hsl(228.5, 77.2%, 51.5%)" stroke-width="1.5"></path><path d="M1264.6 370.26L1264.6 370.26" stroke="hsl(228.5, 77.2%, 51.5%)" stroke-width="1.5"></path><path d="M1264.6 370.26L1399.23 402.36" stroke="hsl(228.5, 77.2%, 51.5%)" stroke-width="1.5"></path><path d="M1264.6 370.26L1152.6 500.41" stroke="hsl(228.5, 77.2%, 51.5%)" stroke-width="1.5"></path><path d="M1282.72 543.56L1282.72 543.56" stroke="hsl(228.5, 77.2%, 51.5%)" stroke-width="1.5"></path><path d="M1282.72 543.56L1280.31 695.81" stroke="hsl(228.5, 77.2%, 51.5%)" stroke-width="1.5"></path><path d="M1282.72 543.56L1441.9 551.63" stroke="hsl(228.5, 77.2%, 51.5%)" stroke-width="1.5"></path><path d="M1282.72 543.56L1264.6 370.26" stroke="hsl(228.5, 77.2%, 51.5%)" stroke-width="1.5"></path><path d="M1282.72 543.56L1399.23 402.36" stroke="hsl(228.5, 77.2%, 51.5%)" stroke-width="1.5"></path><path d="M1280.31 695.81L1280.31 695.81" stroke="hsl(228.5, 77.2%, 51.5%)" stroke-width="1.5"></path><path d="M1280.31 695.81L1435.48 667.8" stroke="hsl(228.5, 77.2%, 51.5%)" stroke-width="1.5"></path><path d="M1280.31 695.81L1441.9 551.63" stroke="hsl(228.5, 77.2%, 51.5%)" stroke-width="1.5"></path><path d="M1410.73 -102.09L1410.73 -102.09" stroke="hsl(228.5, 77.2%, 51.5%)" stroke-width="1.5"></path><path d="M1410.73 -102.09L1415.48 47.65" stroke="hsl(228.5, 77.2%, 51.5%)" stroke-width="1.5"></path><path d="M1410.73 -102.09L1253.65 69.3" stroke="hsl(228.5, 77.2%, 51.5%)" stroke-width="1.5"></path><path d="M1410.73 -102.09L1583.81 53.82" stroke="hsl(228.5, 77.2%, 51.5%)" stroke-width="1.5"></path><path d="M1410.73 -102.09L1156.88 46.02" stroke="hsl(228.5, 77.2%, 51.5%)" stroke-width="1.5"></path><path d="M1415.48 47.65L1415.48 47.65" stroke="hsl(228.5, 77.2%, 51.5%)" stroke-width="1.5"></path><path d="M1415.48 47.65L1401.74 255.43" stroke="hsl(228.5, 77.2%, 51.5%)" stroke-width="1.5"></path><path d="M1401.74 255.43L1401.74 255.43" stroke="hsl(228.5, 77.2%, 51.5%)" stroke-width="1.5"></path><path d="M1401.74 255.43L1399.23 402.36" stroke="hsl(228.5, 77.2%, 51.5%)" stroke-width="1.5"></path><path d="M1401.74 255.43L1553.23 241.01" stroke="hsl(228.5, 77.2%, 51.5%)" stroke-width="1.5"></path><path d="M1399.23 402.36L1399.23 402.36" stroke="hsl(228.5, 77.2%, 51.5%)" stroke-width="1.5"></path><path d="M1399.23 402.36L1441.9 551.63" stroke="hsl(228.5, 77.2%, 51.5%)" stroke-width="1.5"></path><path d="M1399.23 402.36L1582.07 354.6" stroke="hsl(228.5, 77.2%, 51.5%)" stroke-width="1.5"></path><path d="M1441.9 551.63L1441.9 551.63" stroke="hsl(228.5, 77.2%, 51.5%)" stroke-width="1.5"></path><path d="M1441.9 551.63L1435.48 667.8" stroke="hsl(228.5, 77.2%, 51.5%)" stroke-width="1.5"></path><path d="M1435.48 667.8L1435.48 667.8" stroke="hsl(228.5, 77.2%, 51.5%)" stroke-width="1.5"></path><path d="M1435.48 667.8L1558.13 706.61" stroke="hsl(228.5, 77.2%, 51.5%)" stroke-width="1.5"></path><path d="M1435.48 667.8L1282.72 543.56" stroke="hsl(228.5, 77.2%, 51.5%)" stroke-width="1.5"></path><path d="M1553.23 241.01L1553.23 241.01" stroke="hsl(228.5, 77.2%, 51.5%)" stroke-width="1.5"></path><path d="M1553.23 241.01L1582.07 354.6" stroke="hsl(228.5, 77.2%, 51.5%)" stroke-width="1.5"></path><path d="M1553.23 241.01L1583.81 53.82" stroke="hsl(228.5, 77.2%, 51.5%)" stroke-width="1.5"></path><path d="M1553.23 241.01L1399.23 402.36" stroke="hsl(228.5, 77.2%, 51.5%)" stroke-width="1.5"></path><path d="M1553.23 241.01L1415.48 47.65" stroke="hsl(228.5, 77.2%, 51.5%)" stroke-width="1.5"></path><path d="M1582.07 354.6L1582.07 354.6" stroke="hsl(228.5, 77.2%, 51.5%)" stroke-width="1.5"></path><path d="M1610.89 551.28L1610.89 551.28" stroke="hsl(228.5, 77.2%, 51.5%)" stroke-width="1.5"></path><path d="M1610.89 551.28L1558.13 706.61" stroke="hsl(228.5, 77.2%, 51.5%)" stroke-width="1.5"></path><path d="M1610.89 551.28L1441.9 551.63" stroke="hsl(228.5, 77.2%, 51.5%)" stroke-width="1.5"></path><path d="M1610.89 551.28L1582.07 354.6" stroke="hsl(228.5, 77.2%, 51.5%)" stroke-width="1.5"></path><path d="M1558.13 706.61L1558.13 706.61" stroke="hsl(228.5, 77.2%, 51.5%)" stroke-width="1.5"></path><path d="M1558.13 706.61L1441.9 551.63" stroke="hsl(228.5, 77.2%, 51.5%)" stroke-width="1.5"></path><path d="M1558.13 706.61L1280.31 695.81" stroke="hsl(228.5, 77.2%, 51.5%)" stroke-width="1.5"></path><circle r="25" cx="659.01" cy="698.84" fill="url(&quot;#SvgjsRadialGradient1005&quot;)"></circle><circle r="25" cx="1095.41" cy="389.53" fill="url(&quot;#SvgjsRadialGradient1005&quot;)"></circle><circle r="25" cx="1550.45" cy="-86.09" fill="url(&quot;#SvgjsRadialGradient1005&quot;)"></circle><circle r="25" cx="1583.81" cy="53.82" fill="url(&quot;#SvgjsRadialGradient1005&quot;)"></circle><circle r="5" cx="-52.31" cy="554.55" fill="#8b9ad9"></circle><circle r="5" cx="-105.7" cy="673.51" fill="#8b9ad9"></circle><circle r="5" cx="99.64" cy="642.49" fill="#8b9ad9"></circle><circle r="5" cx="245.31" cy="524.63" fill="#8b9ad9"></circle><circle r="5" cx="368.21" cy="531.55" fill="#8b9ad9"></circle><circle r="5" cx="501.98" cy="506.6" fill="#8b9ad9"></circle><circle r="5" cx="535.22" cy="660.62" fill="#8b9ad9"></circle><circle r="5" cx="672.59" cy="510.45" fill="#8b9ad9"></circle><circle r="5" cx="856.42" cy="372.42" fill="#8b9ad9"></circle><circle r="5" cx="815.99" cy="518.73" fill="#8b9ad9"></circle><circle r="5" cx="835.2" cy="711.7" fill="#8b9ad9"></circle><circle r="5" cx="971.81" cy="408.01" fill="#8b9ad9"></circle><circle r="5" cx="1011.03" cy="502.71" fill="#8b9ad9"></circle><circle r="5" cx="972.49" cy="657.67" fill="#8b9ad9"></circle><circle r="5" cx="1156.88" cy="46.02" fill="#8b9ad9"></circle><circle r="5" cx="1152.63" cy="202.3" fill="#8b9ad9"></circle><circle r="5" cx="1152.6" cy="500.41" fill="#8b9ad9"></circle><circle r="5" cx="1123.64" cy="683.24" fill="#8b9ad9"></circle><circle r="5" cx="1238.34" cy="-83.1" fill="#8b9ad9"></circle><circle r="5" cx="1253.65" cy="69.3" fill="#8b9ad9"></circle><circle r="5" cx="1240.22" cy="210.66" fill="#8b9ad9"></circle><circle r="5" cx="1264.6" cy="370.26" fill="#8b9ad9"></circle><circle r="5" cx="1282.72" cy="543.56" fill="#8b9ad9"></circle><circle r="5" cx="1280.31" cy="695.81" fill="#8b9ad9"></circle><circle r="5" cx="1410.73" cy="-102.09" fill="#8b9ad9"></circle><circle r="5" cx="1415.48" cy="47.65" fill="#8b9ad9"></circle><circle r="5" cx="1401.74" cy="255.43" fill="#8b9ad9"></circle><circle r="5" cx="1399.23" cy="402.36" fill="#8b9ad9"></circle><circle r="5" cx="1441.9" cy="551.63" fill="#8b9ad9"></circle><circle r="5" cx="1435.48" cy="667.8" fill="#8b9ad9"></circle><circle r="5" cx="1553.23" cy="241.01" fill="#8b9ad9"></circle><circle r="5" cx="1582.07" cy="354.6" fill="#8b9ad9"></circle><circle r="5" cx="1610.89" cy="551.28" fill="#8b9ad9"></circle><circle r="5" cx="1558.13" cy="706.61" fill="#8b9ad9"></circle></g><defs><mask id="SvgjsMask1004"><rect width="1440" height="560" fill="#ffffff"></rect></mask><radialGradient id="SvgjsRadialGradient1005"><stop stop-color="#ffffff" offset="0.1"></stop><stop stop-color="#1735b3" offset="0.2"></stop><stop stop-color="rgba(23, 53, 179, 0)" offset="1"></stop></radialGradient></defs></svg>